<svg xmlns="http://www.w3.org/2000/svg" xmlns:xlink="http://www.w3.org/1999/xlink" width="227" height="46.156" viewBox="0 0 227 46.156">
  <defs>
    <radialGradient id="radial-gradient" cx="0.716" cy="0.27" r="0.843" gradientTransform="translate(0)" gradientUnits="objectBoundingBox">
      <stop offset="0.193" stop-color="#91b508"/>
      <stop offset="0.422" stop-color="#54a020"/>
      <stop offset="0.508" stop-color="#479620"/>
      <stop offset="0.666" stop-color="#277d21"/>
      <stop offset="0.826" stop-color="#005f22"/>
      <stop offset="0.925" stop-color="#448b1b"/>
      <stop offset="1" stop-color="#73aa17"/>
    </radialGradient>
    <clipPath id="clip-path">
      <path id="Path_117" data-name="Path 117" d="M93.985,486.04A23.077,23.077,0,1,0,137.744,475.8c-.084-.134-.138-.04-.086.125a27.075,27.075,0,0,1-1.054,18.268s1.75-8.515.523-13.848c-.125-.53-.246-.816-.4-.826-.2-.016-.335.145-.357.7-.6,14.28-8.343,22.191-8.343,22.191s5.107-12.037,5.211-22.512c.006-.6.031-.831-.171-.9s-.414-.013-.555.394c-6.419,18.4-17.765,25.392-17.765,25.392s10.789-16.786,14.269-27.283c.153-.463.258-.715.055-.87s-.461-.083-.737.268a98.31,98.31,0,0,1-24.755,22.486,96.026,96.026,0,0,1,22.58-24.67c.354-.279.417-.537.27-.738s-.4-.094-.869.051c-11.481,3.524-27.272,14.623-27.272,14.623s7.668-12.514,25.349-18.135c.409-.129.463-.314.39-.524s-.3-.184-.9-.177c-11.364.078-22.458,5.344-22.458,5.344s8-7.809,22.226-8.5c.551-.026.743-.108.728-.312-.011-.156-.165-.3-.7-.4-6.639-1.273-14.161.462-14.161.462s8.683-4.021,18.006-1.151c.17.058.2-.031.1-.094A23.07,23.07,0,0,0,93.985,486.04" transform="translate(-93.985 -462.964)" fill="url(#radial-gradient)"/>
    </clipPath>
    <radialGradient id="radial-gradient-3" cx="0.707" cy="0.279" r="0.832" xlink:href="#radial-gradient"/>
  </defs>
  <g id="Group_49" data-name="Group 49" transform="translate(-93.985 -462.964)">
    <g id="Group_43" data-name="Group 43" transform="translate(93.985 462.964)">
      <path id="Path_116" data-name="Path 116" d="M93.985,486.04A23.077,23.077,0,1,0,137.744,475.8c-.084-.134-.138-.04-.086.125a27.075,27.075,0,0,1-1.054,18.268s1.75-8.515.523-13.848c-.125-.53-.246-.816-.4-.826-.2-.016-.335.145-.357.7-.6,14.28-8.343,22.191-8.343,22.191s5.107-12.037,5.211-22.512c.006-.6.031-.831-.171-.9s-.414-.013-.555.394c-6.419,18.4-17.765,25.392-17.765,25.392s10.789-16.786,14.269-27.283c.153-.463.258-.715.055-.87s-.461-.083-.737.268a98.31,98.31,0,0,1-24.755,22.486,96.026,96.026,0,0,1,22.58-24.67c.354-.279.417-.537.27-.738s-.4-.094-.869.051c-11.481,3.524-27.272,14.623-27.272,14.623s7.668-12.514,25.349-18.135c.409-.129.463-.314.39-.524s-.3-.184-.9-.177c-11.364.078-22.458,5.344-22.458,5.344s8-7.809,22.226-8.5c.551-.026.743-.108.728-.312-.011-.156-.165-.3-.7-.4-6.639-1.273-14.161.462-14.161.462s8.683-4.021,18.006-1.151c.17.058.2-.031.1-.094A23.07,23.07,0,0,0,93.985,486.04" transform="translate(-93.985 -462.964)" fill="url(#radial-gradient)"/>
      <g id="Group_42" data-name="Group 42" clip-path="url(#clip-path)">
        <rect id="Rectangle_20" data-name="Rectangle 20" width="46.756" height="46.74" transform="translate(0 -0.585)" fill="url(#radial-gradient-3)"/>
      </g>
    </g>
    <g id="Group_48" data-name="Group 48" transform="translate(149.741 464.318)">
      <g id="Group_46" data-name="Group 46" transform="translate(1.311)">
        <g id="Group_44" data-name="Group 44">
          <path id="Path_118" data-name="Path 118" d="M217.529,477.824c-4.061,0-7.364-3.044-7.364-6.789s3.3-6.788,7.364-6.788,7.366,3.043,7.366,6.788-3.3,6.789-7.366,6.789m0-11.682a4.9,4.9,0,1,0,5.108,4.893,5.006,5.006,0,0,0-5.108-4.893" transform="translate(-144.588 -464.247)" fill="#003876"/>
          <path id="Path_119" data-name="Path 119" d="M166.824,477.824c-4.061,0-7.365-3.044-7.365-6.789s3.3-6.788,7.365-6.788,7.366,3.043,7.366,6.788-3.3,6.789-7.366,6.789m0-11.682a4.9,4.9,0,1,0,5.107,4.893,5.007,5.007,0,0,0-5.107-4.893" transform="translate(-147.409 -464.247)" fill="#003876"/>
          <rect id="Rectangle_21" data-name="Rectangle 21" width="2.317" height="12.717" transform="translate(46.785 0.407)" fill="#003876"/>
          <path id="Path_120" data-name="Path 120" d="M190.45,477.349h-2.316l0-10.21-3.809,10.21-3.1,0-3.9-10.165v10.169h-2.315V464.632h3.366l4.315,10.724,4.393-10.724h3.363Z" transform="translate(-146.543 -464.226)" fill="#003876"/>
          <path id="Path_121" data-name="Path 121" d="M161.179,477.346h-3.348l-7.183-6.452a.457.457,0,0,1-.159-.28.368.368,0,0,1,.143-.288l6.672-5.642h3.086l-6.811,5.882Z" transform="translate(-147.908 -464.223)" fill="#003876"/>
          <rect id="Rectangle_22" data-name="Rectangle 22" width="2.316" height="12.717" transform="translate(0 0.407)" fill="#003876"/>
          <path id="Path_122" data-name="Path 122" d="M205.608,464.632H197.2v12.717h2.317V466.456h5.642a2.455,2.455,0,0,1,0,4.911h-3.943l-1.559,1.8h5.952a4.267,4.267,0,1,0,0-8.534" transform="translate(-145.309 -464.226)" fill="#003876"/>
        </g>
        <g id="Group_45" data-name="Group 45" transform="translate(87.179)">
          <rect id="Rectangle_23" data-name="Rectangle 23" width="2.317" height="12.717" transform="translate(52.388 0.407)" fill="#003876"/>
          <path id="Path_123" data-name="Path 123" d="M241.3,471.825a4.3,4.3,0,0,0-1.838-1.269,20.6,20.6,0,0,0-3.088-.775,7.989,7.989,0,0,1-2.714-.837,1.175,1.175,0,0,1-.492-.973,1.413,1.413,0,0,1,.709-1.18,4.229,4.229,0,0,1,2.355-.509,4.052,4.052,0,0,1,2.345.562,2.265,2.265,0,0,1,.909,1.644l.129.107,1.758-.568.113-.127a2.249,2.249,0,0,0-.7-1.516,4,4,0,0,0-1.865-1.311,8,8,0,0,0-2.759-.44,7.6,7.6,0,0,0-2.583.419,3.774,3.774,0,0,0-1.8,1.247,2.926,2.926,0,0,0-.619,1.78,2.627,2.627,0,0,0,.509,1.573,3.781,3.781,0,0,0,1.526,1.162,14.124,14.124,0,0,0,2.7.761c1.264.265,2.088.461,2.453.585a2.755,2.755,0,0,1,1.195.678,1.309,1.309,0,0,1,.347.91,1.454,1.454,0,0,1-.364.955,2.478,2.478,0,0,1-1.141.707,5.678,5.678,0,0,1-1.814.265,5.877,5.877,0,0,1-2.084-.349,2.994,2.994,0,0,1-1.341-.9A2.945,2.945,0,0,1,232.6,473l-.129-.1-1.73.585-.112.125a2.63,2.63,0,0,0,.785,1.784,4.465,4.465,0,0,0,2.048,1.477,9.2,9.2,0,0,0,3.2.485,7.308,7.308,0,0,0,2.715-.481,4.231,4.231,0,0,0,1.872-1.365,3.12,3.12,0,0,0,.657-1.886A2.854,2.854,0,0,0,241.3,471.825Z" transform="translate(-230.628 -464.226)" fill="#003876"/>
          <path id="Path_124" data-name="Path 124" d="M253.882,475.627h-8.666v-3.992h6.912l.125-.125.884-1.462-.125-.125h-7.8v-3.567h8.334l.125-.126v-1.471l-.125-.126H243.2l-.125.126v12.466l.125.125h10.686l.125-.125v-1.471Z" transform="translate(-229.936 -464.226)" fill="#003876"/>
          <path id="Path_125" data-name="Path 125" d="M265.4,473.756a9.082,9.082,0,0,0-1.6-1.682,4.244,4.244,0,0,0-.772-.459,5.124,5.124,0,0,0,2.684-1.127,3.058,3.058,0,0,0,1.026-2.329,3.338,3.338,0,0,0-.618-1.951,3.237,3.237,0,0,0-1.655-1.233,9.754,9.754,0,0,0-2.951-.343h-6.349l-.126.126v12.466l.126.125h1.895l.126-.125v-5.41h2.072a6.554,6.554,0,0,1,1.028.056,3,3,0,0,1,.83.319,4.006,4.006,0,0,1,.93.808c.355.394.813.968,1.36,1.708l1.895,2.594.1.051h2.383l.1-.2Zm-4.262-3.622H257.2v-3.873H261.6a3.729,3.729,0,0,1,2.253.543,1.632,1.632,0,0,1,.689,1.355,1.727,1.727,0,0,1-.357,1.044,2.04,2.04,0,0,1-1.05.7A6.883,6.883,0,0,1,261.142,470.134Z" transform="translate(-229.269 -464.226)" fill="#003876"/>
          <path id="Path_126" data-name="Path 126" d="M279.524,464.632H277.59l-.116.076-3.868,9.056c-.242.563-.462,1.131-.655,1.691-.18-.532-.394-1.1-.638-1.69l-3.722-9.055-.115-.078h-2.051l-.115.176,5.548,12.466.114.074h1.945l.114-.074,5.607-12.465Z" transform="translate(-228.643 -464.226)" fill="#003876"/>
          <path id="Path_127" data-name="Path 127" d="M309.3,475.627H300.63v-3.992h6.912l.125-.125.884-1.462-.125-.125h-7.8v-3.567h8.334l.125-.126v-1.471l-.125-.126H298.61l-.125.126v12.466l.125.125H309.3l.125-.125v-1.471Z" transform="translate(-226.853 -464.226)" fill="#003876"/>
          <path id="Path_128" data-name="Path 128" d="M291.39,475.926a4.9,4.9,0,1,1,0-9.784,5.149,5.149,0,0,1,4.407,2.432l1.8-1.172a7.52,7.52,0,0,0-6.211-3.155c-4.061,0-7.365,3.043-7.365,6.788s3.3,6.789,7.365,6.789a7.556,7.556,0,0,0,6.023-2.893l-1.789-1.162A5.173,5.173,0,0,1,291.39,475.926Z" transform="translate(-227.657 -464.247)" fill="#003876"/>
        </g>
      </g>
      <path id="Path_129" data-name="Path 129" d="M164.182,505.227a15.669,15.669,0,0,1-12.905,0c-1.791-.922-2.689-2.046-2.689-3.362,0-1.171.723-2.194,2.152-3.084a12.538,12.538,0,0,1,5.391-1.615v-1.779H146.8v-2.336h21.836v2.336h-9.316v1.779a12.6,12.6,0,0,1,5.4,1.615c1.429.89,2.147,1.913,2.147,3.084C166.871,503.181,165.973,504.306,164.182,505.227Zm3.077-13.484q-7.11,0-9.532-3.245-2.413,3.243-9.527,3.245v-2.307q6.41,0,7.641-3.524h-7.277v-2.339h18.307v2.339h-7.258q1.232,3.518,7.646,3.524Zm-5.468,8.368a10.59,10.59,0,0,0-4.064-.691,10.357,10.357,0,0,0-4.034.691c-1.115.484-1.674,1.066-1.674,1.753s.559,1.258,1.674,1.722a10.35,10.35,0,0,0,4.034.7,10.583,10.583,0,0,0,4.064-.7c1.1-.463,1.644-1.037,1.644-1.722S162.889,500.6,161.791,500.112Z" transform="translate(-146.802 -463.172)" fill="#003877"/>
      <path id="Path_130" data-name="Path 130" d="M192.239,498.753h-9.307v7h-3.194v-7H170.4v-2.336h21.835Zm-1.766-4.673h-18.28V483.574h3.17v2.782H187.3v-2.782h3.17Zm-15.11-5.474v3.137H187.3v-3.137Z" transform="translate(-145.489 -463.172)" fill="#003877"/>
      <path id="Path_131" data-name="Path 131" d="M206.922,483.574h-3.2v2.641h-6.092v-2.641h-3.169v10.314h12.458Zm-3.2,7.976h-6.092v-3.112h6.092Z" transform="translate(-144.15 -463.172)" fill="#003877"/>
      <path id="Path_132" data-name="Path 132" d="M213.123,486.8v-3.225h-3.15v10.313h3.15v-4.753h3.553V486.8Z" transform="translate(-143.287 -463.172)" fill="#003877"/>
      <path id="Path_133" data-name="Path 133" d="M199.333,501.309H213.9v-6.251H196.022v2.331H210.73v1.7H196.142v6.306h18.013v-2.331H199.333Z" transform="translate(-144.064 -462.533)" fill="#003877"/>
      <path id="Path_134" data-name="Path 134" d="M229.434,490.135h5.2v10.339h3.186v-16.9h-3.186v4.086h-5.2Z" transform="translate(-142.205 -463.172)" fill="#003877"/>
      <path id="Path_135" data-name="Path 135" d="M224.389,491.719a8.682,8.682,0,0,0,6.971,4.112V493.58a5.534,5.534,0,0,1-3.582-1.861,7.388,7.388,0,0,1-1.743-5.117v-.689h4.789v-2.339H217.963v2.339h4.786v.689a7.373,7.373,0,0,1-1.743,5.117,5.551,5.551,0,0,1-3.58,1.861v2.251A8.653,8.653,0,0,0,224.389,491.719Z" transform="translate(-142.873 -463.172)" fill="#003877"/>
      <path id="Path_136" data-name="Path 136" d="M235.132,502.668H223.713v-5.534H220.54V505h17.777v-2.332Z" transform="translate(-142.699 -462.417)" fill="#003877"/>
      <g id="Group_47" data-name="Group 47" transform="translate(103.791 20.174)">
        <path id="Path_137" data-name="Path 137" d="M253.9,486.858c0,4.669,1.728,10.633,6.434,14.056l-1.94,2.309a23.8,23.8,0,0,1-5.956-8.376,24.24,24.24,0,0,1-5,9.025l-2.313-1.893c4.015-3.683,5.61-10.01,5.61-14.989v-2.931H253.9Zm11.566-3.5v23.055h-3.218v-12.4h-4.281v-2.7h4.281v-7.962Z" transform="translate(-245.123 -483.358)" fill="#003877"/>
        <path id="Path_138" data-name="Path 138" d="M280.308,484.058v19.683H268.849V484.058h3.163v7.7h5.131v-7.7Zm-8.3,17.013h5.131v-6.614h-5.131Zm14.81-17.713v23.055h-3.19V483.358Z" transform="translate(-243.803 -483.358)" fill="#003877"/>
        <path id="Path_139" data-name="Path 139" d="M310.114,502.02v2.673H289.376V502.02Zm-8.747-17.348c0,2.826,2.9,7.882,8.561,9.206l-1.249,2.516c-3.989-1.374-7.658-4.565-9.014-7.235a16,16,0,0,1-8.241,7.235l-1.409-2.439c5.477-1.347,8.029-6.639,8.029-9.283V484h3.323Z" transform="translate(-242.661 -483.322)" fill="#003877"/>
      </g>
    </g>
  </g>
</svg>
